{
.appVersion = "3148";
.formatVersion = 3;
DisplayStrings = (
"CARBO
ARARAR
RRRRRR
OROROR",
"AROMA
MMMMMM
MOMOMO
AMAMAM",
"TOTOTO
TTTTTT
IIIII
INININ
OIOIOI
NONONO
NNNNNN
HTHTHT",
"WWWWWW
WOWOWO
OSOSOS
SSSSSS
NSNSNS",
"GOGOGO
GGGGGG",
"JHJHJH
UHUHUH
JJJJJJ",
"VVVVVV
VNHVNVN",
"LHLHLH
LLLLLL",
"HXHXHX
XXXXXX
XOXOXO
OYOYOY",
NZNZNZ
);
date = "2022-10-11 19:35:56 +0000";
familyName = "Aromech LAB 20221016";
fontMaster = (
{
id = m01;
metricValues = (
{
over = 16;
pos = 850;
},
{
over = 16;
pos = 800;
},
{
over = 16;
pos = 600;
},
{
over = -16;
},
{
over = -16;
pos = -250;
},
{
over = -16;
}
);
name = Regular;
}
);
glyphs = (
{
glyphname = A;
lastChange = "2022-10-11 19:51:05 +0000";
layers = (
{
backgroundImage = {
imagePath = "latin-capital/A.png";
locked = 1;
pos = (-23,-181);
scale = (3.8575,3.8575);
};
layerId = m01;
shapes = (
{
closed = 1;
nodes = (
(649,63,l),
(614,244,l),
(593,305,l),
(536,573,l),
(511,712,l),
(501,800,l),
(483,808,l),
(434,707,l),
(395,609,l),
(387,595,l),
(353,520,l),
(271,366,l),
(229,259,l),
(159,131,l),
(125,75,l),
(153,69,l),
(231,207,l),
(290,343,l),
(352,470,l),
(463,728,l),
(450,713,l),
(466,713,l),
(466,674,l),
(524,363,l),
(528,342,l),
(571,187,l),
(597,63,l)
);
},
{
closed = 1;
nodes = (
(194,5,l),
(231,75,l),
(220,88,l),
(58,80,l),
(35,12,l),
(35,-1,l)
);
},
{
closed = 1;
nodes = (
(673,-1,l),
(696,48,l),
(705,66,l),
(698,81,l),
(676,81,l),
(657,76,l),
(572,72,l),
(544,79,l),
(527,28,l),
(528,6,l),
(556,-4,l)
);
},
{
closed = 1;
nodes = (
(263,308,l),
(391,315,l),
(557,308,l),
(554,385,l),
(426,388,l),
(295,378,l)
);
}
);
width = 740;
}
);
unicode = 65;
},
{
glyphname = B;
lastChange = "2022-10-11 20:19:56 +0000";
layers = (
{
backgroundImage = {
imagePath = "latin-capital/B.png";
locked = 1;
pos = (2,-173);
scale = (3.9172,3.9172);
};
layerId = m01;
shapes = (
{
closed = 1;
nodes = (
(271,-8,o),
(306,0,o),
(332,20,cs),
(424,93,o),
(464,186,o),
(464,294,cs),
(464,444,o),
(374,505,o),
(230,505,c),
(230,515,l),
(289,575,o),
(338,642,o),
(370,706,cs),
(377,719,o),
(383,736,o),
(383,752,cs),
(383,786,o),
(355,808,o),
(314,808,cs),
(83,808,l),
(49,730,l),
(286,738,ls),
(307,739,o),
(336,724,o),
(336,703,cs),
(336,684,o),
(319,665,o),
(307,649,cs),
(263,591,o),
(221,544,o),
(169,494,c),
(147,457,l),
(138,423,l),
(160,433,o),
(184,439,o),
(209,439,cs),
(335,439,o),
(419,371,o),
(419,270,cs),
(419,145,o),
(359,61,o),
(269,61,c),
(198,61,o),
(119,104,o),
(57,153,c),
(36,97,l),
(98,44,o),
(188,-8,o),
(239,-8,cs)
);
},
{
closed = 1;
nodes = (
(106,758,l),
(106,-2,l),
(116,-2,l),
(148,82,l),
(148,758,l)
);
}
);
width = 500;
}
);
unicode = 66;
},
{
glyphname = C;
lastChange = "2022-10-11 20:34:25 +0000";
layers = (
{
backgroundImage = {
imagePath = "latin-capital/C.png";
locked = 1;
pos = (-26,-195);
scale = (3.935,3.935);
};
layerId = m01;
shapes = (
{
closed = 1;
nodes = (
(365,-6,o),
(427,51,o),
(514,141,c),
(502,177,l),
(435,108,o),
(374,71,o),
(288,71,cs),
(178,71,o),
(74,198,o),
(74,320,cs),
(74,481,o),
(136,625,o),
(199,707,c),
(253,730,o),
(361,760,o),
(453,760,cs),
(478,760,o),
(493,742,o),
(493,720,cs),
(493,696,o),
(489,673,o),
(486,649,c),
(524,679,l),
(535,702,o),
(546,729,o),
(546,754,cs),
(546,784,o),
(505,810,o),
(474,810,cs),
(382,810,o),
(287,781,o),
(203,759,c),
(93,630,o),
(34,465,o),
(34,290,cs),
(34,49,o),
(219,-6,o),
(271,-6,cs)
);
}
);
width = 580;
}
);
unicode = 67;
},
{
glyphname = D;
lastChange = "2022-10-15 18:08:36 +0000";
layers = (
{
backgroundImage = {
imagePath = "latin-capital/D.png";
locked = 1;
pos = (-14,-247);
scale = (4.1684,4.1684);
};
layerId = m01;
shapes = (
{
closed = 1;
nodes = (
(75,0,ls),
(227,0,o),
(474,190,o),
(623,438,cs),
(648,480,o),
(650,532,o),
(650,581,cs),
(650,708,o),
(523,806,o),
(387,806,cs),
(283,806,o),
(181,795,o),
(78,773,c),
(37,704,l),
(127,727,o),
(271,746,o),
(345,746,cs),
(582,746,o),
(599,583,o),
(599,513,cs),
(599,361,o),
(254,54,o),
(107,54,cs),
(52,54,l),
(32,0,l)
);
},
{
closed = 1;
nodes = (
(82,-26,l),
(92,-26,l),
(136,39,l),
(136,794,l),
(82,753,l)
);
}
);
width = 670;
}
);
unicode = 68;
},
{
glyphname = E;
lastChange = "2022-10-13 11:40:07 +0000";
layers = (
{
backgroundImage = {
imagePath = "latin-capital/E.png";
locked = 1;
pos = (-30,-178);
scale = (3.9094,3.9094);
};
layerId = m01;
shapes = (
{
closed = 1;
nodes = (
(453,-2,l),
(504,59,l),
(479,82,l),
(68,84,l),
(28,1,l)
);
},
{
closed = 1;
nodes = (
(126,49,l),
(138,303,l),
(119,615,l),
(136,778,l),
(88,782,l),
(76,584,l),
(89,307,l),
(82,47,l)
);
},
{
closed = 1;
nodes = (
(301,423,l),
(348,477,l),
(332,495,l),
(67,499,l),
(26,421,l)
);
},
{
closed = 1;
nodes = (
(227,741,l),
(341,750,l),
(417,744,l),
(459,778,l),
(448,808,l),
(229,803,l),
(65,812,l),
(34,747,l)
);
}
);
width = 530;
}
);
unicode = 69;
},
{
glyphname = F;
lastChange = "2022-10-15 18:19:45 +0000";
layers = (
{
backgroundImage = {
imagePath = "latin-capital/F.png";
locked = 1;
pos = (-28,-191);
scale = (3.9878,3.9878);
};
layerId = m01;
shapes = (
{
closed = 1;
nodes = (
(89,-7,l),
(122,57,l),
(147,772,l),
(90,778,l),
(76,-7,l)
);
},
{
closed = 1;
nodes = (
(116,421,l),
(300,421,l),
(348,481,l),
(328,505,l),
(60,489,l),
(24,415,l),
(32,405,l)
);
},
{
closed = 1;
nodes = (
(122,739,l),
(224,724,l),
(409,724,l),
(449,768,ls),
(453,773,o),
(456,777,o),
(456,781,cs),
(456,785,o),
(454,790,o),
(451,793,cs),
(438,803,l),
(398,801,o),
(360,800,o),
(320,800,cs),
(279,800,o),
(217,805,o),
(176,809,cs),
(67,819,l),
(29,739,l)
);
}
);
width = 480;
}
);
unicode = 70;
},
{
glyphname = G;
lastChange = "2022-10-15 18:45:06 +0000";
layers = (
{
backgroundImage = {
imagePath = "latin-capital/G.png";
locked = 1;
pos = (-14,-206);
scale = (3.875,3.875);
};
layerId = m01;
shapes = (
{
closed = 1;
nodes = (
(342,-17,o),
(400,16,o),
(458,91,cs),
(523,178,l),
(523,218,l),
(452,132,ls),
(414,85,o),
(348,64,o),
(287,64,c),
(163,64,o),
(81,185,o),
(81,368,cs),
(81,476,o),
(106,573,o),
(184,696,c),
(242,734,o),
(343,745,o),
(425,745,cs),
(493,745,o),
(539,719,o),
(539,681,cs),
(539,652,o),
(526,625,o),
(509,598,c),
(560,640,l),
(573,662,o),
(590,691,o),
(590,722,cs),
(590,754,o),
(540,806,o),
(496,806,cs),
(411,806,o),
(320,807,o),
(244,780,cs),
(216,770,o),
(195,751,o),
(177,725,cs),
(90,599,o),
(30,460,o),
(30,314,cs),
(30,111,o),
(122,-17,o),
(261,-17,cs)
);
},
{
closed = 1;
nodes = (
(499,-17,l),
(543,47,l),
(559,336,l),
(547,358,l),
(497,358,ls),
(455,358,o),
(411,362,o),
(369,370,c),
(335,296,l),
(372,286,o),
(407,278,o),
(445,278,cs),
(478,278,o),
(510,282,o),
(543,289,c),
(517,316,l),
(491,-17,l)
);
}
);
width = 610;
}
);
unicode = 71;
},
{
glyphname = H;
lastChange = "2022-10-15 19:18:33 +0000";
layers = (
{
backgroundImage = {
imagePath = "latin-capital/H.png";
locked = 1;
pos = (0,-203);
scale = (3.9421,3.9421);
};
layerId = m01;
shapes = (
{
closed = 1;
nodes = (
(465,34,l),
(455,412,l),
(478,749,l),
(429,760,l),
(402,352,l),
(416,21,l)
);
},
{
closed = 1;
nodes = (
(102,15,l),
(131,7,l),
(164,59,l),
(173,76,l),
(161,92,l),
(54,85,l),
(25,3,l)
);
},
{
closed = 1;
nodes = (
(453,-12,l),
(502,44,l),
(497,68,l),
(383,60,l),
(355,-27,l)
);
},
{
closed = 1;
nodes = (
(115,60,l),
(132,765,l),
(75,769,l),
(67,55,l)
);
},
{
closed = 1;
nodes = (
(436,478,l),
(101,481,l),
(97,404,l),
(434,399,l)
);
},
{
closed = 1;
nodes = (
(149,727,l),
(196,781,l),
(180,805,l),
(70,800,l),
(31,726,l)
);
},
{
closed = 1;
nodes = (
(524,755,l),
(512,780,l),
(407,815,l),
(370,747,l),
(378,727,l),
(487,698,l)
);
}
);
width = 550;
}
);
unicode = 72;
},
{
glyphname = I;
lastChange = "2022-10-15 17:24:08 +0000";
layers = (
{
backgroundImage = {
imagePath = "latin-capital/I.png";
locked = 1;
pos = (0,-180);
scale = (3.8375,3.8375);
};
layerId = m01;
shapes = (
{
closed = 1;
nodes = (
(63,-2,o),
(77,0,o),
(92,0,cs),
(124,0,o),
(155,-10,o),
(187,-10,cs),
(254,-11,l),
(297,48,l),
(282,66,l),
(202,66,l),
(130,75,l),
(85,72,l),
(48,-4,l)
);
},
{
closed = 1;
nodes = (
(170,40,l),
(202,780,l),
(142,784,l),
(124,30,l)
);
},
{
closed = 1;
nodes = (
(169,753,l),
(222,737,l),
(270,778,l),
(254,798,l),
(162,808,l),
(140,806,o),
(117,801,o),
(95,801,cs),
(85,801,o),
(74,807,o),
(64,807,c),
(32,759,l),
(54,737,l)
);
}
);
width = 330;
}
);
unicode = 73;
},
{
glyphname = J;
lastChange = "2022-10-15 18:57:31 +0000";
layers = (
{
backgroundImage = {
imagePath = "latin-capital/J.png";
locked = 1;
pos = (-22,-190);
scale = (3.94,3.94);
};
layerId = m01;
shapes = (
{
closed = 1;
nodes = (
(230,-105,o),
(279,-54,o),
(304,9,c),
(326,147,o),
(340,278,o),
(340,417,cs),
(340,539,o),
(336,660,o),
(331,784,c),
(274,784,l),
(283,619,o),
(290,453,o),
(290,286,cs),
(290,185,o),
(274,85,o),
(258,-15,c),
(247,-28,o),
(231,-37,o),
(215,-37,cs),
(195,-37,o),
(174,-25,o),
(164,-7,cs),
(128,61,l),
(110,51,l),
(84,-15,l),
(114,-55,ls),
(137,-85,o),
(168,-105,o),
(194,-105,cs)
);
},
{
closed = 1;
nodes = (
(336,743,l),
(390,786,l),
(368,810,l),
(248,802,l),
(50,816,l),
(20,743,l)
);
}
);
width = 410;
}
);
unicode = 74;
},
{
glyphname = K;
lastChange = "2022-10-15 19:56:37 +0000";
layers = (
{
backgroundImage = {
imagePath = "latin-capital/K.png";
locked = 1;
pos = (-2,-196);
scale = (3.94,3.94);
};
layerId = m01;
shapes = (
{
closed = 1;
nodes = (
(406,0,l),
(466,14,l),
(484,2,l),
(536,66,l),
(520,88,l),
(408,82,l),
(348,82,l),
(310,0,l)
);
},
{
closed = 1;
nodes = (
(230,52,l),
(198,72,l),
(58,72,l),
(24,-4,l),
(146,-4,l),
(186,-16,l)
);
},
{
closed = 1;
nodes = (
(146,38,l),
(146,769,l),
(97,772,l),
(97,38,l)
);
},
{
closed = 1;
nodes = (
(459,792,l),
(439,820,l),
(127,364,l),
(127,310,l)
);
},
{
closed = 1;
nodes = (
(382,51,l),
(469,50,l),
(232,490,l),
(182,422,l)
);
},
{
closed = 1;
nodes = (
(205,768,l),
(187,794,l),
(97,804,l),
(65,750,l),
(65,732,l),
(157,722,l)
);
}
);
width = 560;
}
);
unicode = 75;
},
{
glyphname = L;
lastChange = "2022-10-15 20:08:42 +0000";
layers = (
{
backgroundImage = {
imagePath = "latin-capital/L.png";
locked = 1;
pos = (-12,-199);
scale = (3.9421,3.9421);
};
layerId = m01;
shapes = (
{
closed = 1;
nodes = (
(344,-6,l),
(394,-16,l),
(414,20,ls),
(420,30,o),
(430,40,o),
(438,46,c),
(438,54,l),
(408,70,l),
(46,80,l),
(20,-6,l)
);
},
{
closed = 1;
nodes = (
(84,47,l),
(123,46,l),
(166,787,l),
(121,779,l)
);
},
{
closed = 1;
nodes = (
(190,741,l),
(240,797,l),
(216,819,l),
(110,813,l),
(74,731,l)
);
}
);
width = 460;
}
);
unicode = 76;
},
{
glyphname = M;
lastChange = "2022-10-11 21:51:50 +0000";
layers = (
{
backgroundImage = {
imagePath = "latin-capital/M.png";
locked = 1;
pos = (1,-185);
scale = (3.8314,3.8314);
};
layerId = m01;
shapes = (
{
closed = 1;
nodes = (
(186,-2,l),
(206,19,o),
(218,40,o),
(218,65,cs),
(218,74,o),
(211,83,o),
(193,83,cs),
(163,83,o),
(125,71,o),
(86,71,cs),
(78,71,o),
(72,74,o),
(66,77,c),
(36,-8,l)
);
},
{
closed = 1;
nodes = (
(883,0,l),
(926,-10,l),
(964,62,l),
(944,77,l),
(792,85,l),
(765,0,l)
);
},
{
closed = 1;
nodes = (
(79,47,l),
(147,48,l),
(244,268,o),
(320,514,o),
(383,765,c),
(343,775,l),
(312,600,o),
(266,435,o),
(214,284,cs),
(185,201,o),
(147,88,o),
(79,57,c)
);
},
{
closed = 1;
nodes = (
(432,720,l),
(478,780,l),
(466,800,l),
(296,800,l),
(261,720,l)
);
},
{
closed = 1;
nodes = (
(388,622,o),
(445,489,o),
(492,361,c),
(504,361,l),
(566,477,o),
(614,604,o),
(656,737,c),
(632,741,l),
(548,515,ls),
(540,494,o),
(529,475,o),
(513,459,c),
(527,459,l),
(488,575,o),
(444,672,o),
(396,758,c),
(329,757,l)
);
},
{
closed = 1;
nodes = (
(631,768,l),
(774,220,ls),
(790,159,o),
(813,67,o),
(855,48,c),
(947,55,l),
(883,94,o),
(845,181,o),
(825,258,cs),
(693,767,l)
);
},
{
closed = 1;
nodes = (
(737,712,l),
(781,778,l),
(761,800,l),
(614,800,l),
(580,722,l)
);
}
);
width = 1000;
}
);
unicode = 77;
},
{
glyphname = N;
lastChange = "2022-10-15 19:17:46 +0000";
layers = (
{
backgroundImage = {
imagePath = "latin-capital/N.png";
locked = 1;
pos = (3,-134);
scale = (3.7029,3.7029);
};
layerId = m01;
shapes = (
{
closed = 1;
nodes = (
(171,5,l),
(205,71,l),
(195,89,l),
(66,89,l),
(41,7,l)
);
},
{
closed = 1;
nodes = (
(404,-7,l),
(446,-4,l),
(481,-13,l),
(518,42,l),
(519,48,l),
(484,72,l),
(402,65,l),
(379,81,l),
(354,-2,l)
);
},
{
closed = 1;
nodes = (
(471,44,l),
(475,770,l),
(421,766,l),
(430,42,l)
);
},
{
closed = 1;
nodes = (
(123,769,l),
(84,773,l),
(77,65,l),
(112,63,l)
);
},
{
closed = 1;
nodes = (
(131,728,l),
(169,788,l),
(156,809,l),
(58,805,l),
(28,724,l)
);
},
{
closed = 1;
nodes = (
(376,730,l),
(506,724,l),
(552,773,l),
(534,795,l),
(406,802,l),
(376,739,l)
);
},
{
closed = 1;
nodes = (
(450,287,l),
(450,399,l),
(102,768,l),
(102,661,l)
);
}
);
width = 580;
}
);
unicode = 78;
},
{
glyphname = O;
lastChange = "2022-10-11 20:48:55 +0000";
layers = (
{
backgroundImage = {
imagePath = "latin-capital/O.png";
locked = 1;
pos = (-11,-142);
scale = (3.7647,3.7647);
};
layerId = m01;
shapes = (
{
closed = 1;
nodes = (
(320,-8,o),
(383,42,o),
(428,89,cs),
(541,207,o),
(618,430,o),
(618,548,cs),
(618,705,o),
(516,808,o),
(364,808,cs),
(280,808,o),
(194,755,o),
(146,687,cs),
(76,589,o),
(32,466,o),
(32,346,cs),
(32,128,o),
(128,-8,o),
(255,-8,cs)
);
},
{
closed = 1;
nodes = (
(160,74,o),
(83,194,o),
(79,382,cs),
(75,593,o),
(182,730,o),
(337,730,cs),
(471,730,o),
(561,640,o),
(561,494,cs),
(561,266,o),
(425,74,o),
(281,74,cs)
);
}
);
width = 650;
}
);
unicode = 79;
},
{
glyphname = P;
lastChange = "2022-10-15 20:21:13 +0000";
layers = (
{
backgroundImage = {
imagePath = "latin-capital/P.png";
locked = 1;
pos = (-3,-172);
scale = (3.9396,3.9396);
};
layerId = m01;
shapes = (
{
closed = 1;
nodes = (
(56,-16,l),
(90,40,l),
(150,774,l),
(94,774,l),
(40,-16,l)
);
},
{
closed = 1;
nodes = (
(307,402,o),
(440,561,o),
(440,670,cs),
(440,750,o),
(339,816,o),
(215,816,cs),
(160,816,o),
(96,802,o),
(54,782,c),
(20,702,l),
(59,727,o),
(123,744,o),
(181,744,cs),
(259,744,o),
(382,703,o),
(382,624,cs),
(382,560,o),
(299,472,o),
(176,402,c),
(143,318,l)
);
}
);
width = 460;
}
);
unicode = 80;
},
{
glyphname = Thorn;
lastChange = "2022-10-16 19:45:49 +0000";
layers = (
{
backgroundImage = {
imagePath = "latin-capital/Thorn.png";
locked = 1;
pos = (-6,-167);
scale = (3.9,3.9);
};
layerId = m01;
shapes = (
{
closed = 1;
nodes = (
(40,-20,o),
(59,-22,o),
(77,-22,cs),
(100,-22,o),
(123,-19,o),
(146,-10,c),
(180,55,l),
(169,71,l),
(146,61,o),
(123,57,o),
(99,57,cs),
(83,57,o),
(70,61,o),
(55,70,c),
(22,-12,l)
);
},
{
closed = 1;
nodes = (
(123,36,l),
(152,796,l),
(108,796,l),
(83,36,l)
);
},
{
closed = 1;
nodes = (
(78,752,o),
(103,754,o),
(128,754,cs),
(149,754,o),
(169,749,o),
(189,739,c),
(238,796,l),
(224,817,l),
(196,824,o),
(167,828,o),
(139,828,cs),
(122,828,o),
(106,827,o),
(89,823,c),
(53,743,l)
);
},
{
closed = 1;
nodes = (
(158,251,o),
(198,236,o),
(243,236,cs),
(300,236,o),
(351,285,o),
(381,333,cs),
(418,391,ls),
(443,430,o),
(458,477,o),
(458,523,cs),
(458,600,o),
(374,666,o),
(294,666,cs),
(225,666,o),
(166,637,o),
(126,582,c),
(126,539,l),
(166,569,o),
(208,589,o),
(264,589,cs),
(329,589,o),
(407,531,o),
(407,459,cs),
(407,392,o),
(338,313,o),
(271,313,cs),
(246,313,o),
(224,319,o),
(181,344,cs),
(116,382,l),
(116,284,l)
);
}
);
width = 480;
}
);
unicode = 222;
},
{
glyphname = Q;
lastChange = "2022-10-15 20:32:03 +0000";
layers = (
{
backgroundImage = {
imagePath = "latin-capital/Q.png";
locked = 1;
pos = (-16,-184);
scale = (4,4);
};
layerId = m01;
shapes = (
{
closed = 1;
nodes = (
(467,-9,o),
(670,255,o),
(670,531,cs),
(670,680,o),
(543,801,o),
(388,801,cs),
(304,801,o),
(233,766,o),
(173,721,c),
(89,615,o),
(20,459,o),
(20,255,cs),
(20,110,o),
(113,-9,o),
(227,-9,cs)
);
},
{
closed = 1;
nodes = (
(152,70,o),
(76,165,o),
(76,308,cs),
(76,435,o),
(113,567,o),
(180,674,c),
(214,705,o),
(275,727,o),
(328,727,cs),
(481,727,o),
(607,609,o),
(607,464,cs),
(607,228,o),
(470,70,o),
(266,70,cs)
);
},
{
closed = 1;
nodes = (
(248,129,ls),
(393,129,o),
(412,-53,o),
(482,-53,cs),
(518,-53,o),
(544,-19,o),
(568,8,c),
(551,31,l),
(539,23,o),
(527,21,o),
(515,21,cs),
(500,21,l),
(456,99,o),
(391,210,o),
(301,206,cs),
(259,204,l),
(219,129,l)
);
}
);
width = 690;
}
);
unicode = 81;
},
{
glyphname = R;
lastChange = "2022-10-11 21:04:57 +0000";
layers = (
{
backgroundImage = {
imagePath = "latin-capital/R.png";
locked = 1;
pos = (4,-135);
scale = (3.7897,3.7897);
};
layerId = m01;
shapes = (
{
closed = 1;
nodes = (
(470,61,l),
(269,416,l),
(215,363,l),
(432,-16,l)
);
},
{
closed = 1;
nodes = (
(264,369,o),
(385,522,o),
(385,685,cs),
(385,754,o),
(307,810,o),
(212,810,cs),
(166,810,o),
(120,797,o),
(75,779,c),
(40,697,l),
(88,715,o),
(135,730,o),
(184,730,cs),
(256,730,o),
(341,685,o),
(341,613,cs),
(341,518,o),
(245,416,o),
(177,354,c),
(145,259,l)
);
},
{
closed = 1;
nodes = (
(86,756,l),
(76,-16,l),
(86,-16,l),
(113,44,l),
(125,756,l)
);
}
);
width = 510;
}
);
unicode = 82;
},
{
glyphname = S;
lastChange = "2022-10-15 17:47:37 +0000";
layers = (
{
backgroundImage = {
imagePath = "latin-capital/S.png";
pos = (-32,-129);
scale = (3.804,3.804);
};
layerId = m01;
shapes = (
{
closed = 1;
nodes = (
(213,-8,o),
(258,16,o),
(276,53,cs),
(312,126,ls),
(319,140,o),
(321,151,o),
(321,165,cs),
(321,182,o),
(318,198,o),
(312,214,cs),
(264,344,o),
(169,471,o),
(122,612,cs),
(117,627,o),
(114,646,o),
(114,662,cs),
(114,687,o),
(166,726,o),
(232,726,cs),
(261,726,o),
(297,728,o),
(321,717,cs),
(325,714,o),
(335,710,o),
(335,704,cs),
(335,695,o),
(330,686,o),
(325,678,c),
(335,672,l),
(376,737,ls),
(380,743,o),
(384,761,o),
(384,767,cs),
(384,789,o),
(331,808,o),
(265,808,cs),
(211,808,o),
(166,788,o),
(115,743,cs),
(105,735,o),
(97,725,o),
(90,705,cs),
(80,673,o),
(66,610,o),
(66,582,cs),
(66,512,o),
(174,346,o),
(230,229,cs),
(250,188,o),
(264,147,o),
(274,101,c),
(255,82,o),
(227,72,o),
(197,72,cs),
(148,72,o),
(104,89,o),
(56,111,c),
(26,29,l),
(72,5,o),
(119,-8,o),
(172,-8,cs)
);
}
);
width = 410;
}
);
unicode = 83;
},
{
glyphname = T;
lastChange = "2022-10-13 19:41:43 +0000";
layers = (
{
backgroundImage = {
imagePath = "latin-capital/T.png";
locked = 1;
pos = (-32,-120);
scale = (3.8147,3.8147);
};
layerId = m01;
shapes = (
{
closed = 1;
nodes = (
(159,-13,l),
(195,62,l),
(241,757,l),
(195,761,l),
(153,-13,l)
);
},
{
closed = 1;
nodes = (
(128,716,l),
(256,728,l),
(366,728,l),
(414,796,l),
(398,811,l),
(228,806,l),
(156,795,l),
(55,803,l),
(26,716,l)
);
}
);
width = 440;
}
);
unicode = 84;
},
{
glyphname = U;
lastChange = "2022-10-15 19:15:11 +0000";
layers = (
{
backgroundImage = {
imagePath = "latin-capital/U.png";
locked = 1;
pos = (0,-180);
scale = (3.94,3.94);
};
layerId = m01;
shapes = (
{
closed = 1;
nodes = (
(84,0,o),
(150,0,cs),
(168,0,o),
(189,4,o),
(212,14,cs),
(257,33,o),
(301,62,o),
(337,96,cs),
(374,131,o),
(402,175,o),
(427,219,cs),
(471,297,l),
(476,372,l),
(418,265,ls),
(347,134,o),
(230,80,o),
(150,80,cs),
(95,80,o),
(85,233,o),
(85,280,cs),
(85,448,o),
(96,615,o),
(108,783,c),
(68,786,l),
(49,299,l),
(49,142,ls),
(49,55,o)
);
},
{
closed = 1;
nodes = (
(484,-20,l),
(519,43,l),
(515,62,l),
(416,69,l),
(394,-15,l)
);
},
{
closed = 1;
nodes = (
(483,725,l),
(528,789,l),
(520,809,l),
(424,815,l),
(389,737,l)
);
},
{
closed = 1;
nodes = (
(165,798,l),
(151,812,l),
(53,817,l),
(22,736,l),
(126,730,l)
);
},
{
closed = 1;
nodes = (
(449,777,l),
(449,215,l),
(437,41,l),
(467,41,l),
(489,230,l),
(489,777,l)
);
}
);
width = 550;
}
);
unicode = 85;
},
{
glyphname = V;
lastChange = "2022-10-15 19:40:55 +0000";
layers = (
{
backgroundImage = {
imagePath = "latin-capital/V.png";
locked = 1;
pos = (-22,-202);
scale = (4,4);
};
layerId = m01;
shapes = (
{
closed = 1;
nodes = (
(639,765,l),
(607,765,l),
(285,78,l),
(275,78,l),
(258,122,o),
(245,171,o),
(236,219,cs),
(134,779,l),
(65,779,l),
(180,213,ls),
(193,147,o),
(215,80,o),
(238,18,c),
(268,-6,l)
);
},
{
closed = 1;
nodes = (
(672,729,l),
(718,789,l),
(698,809,l),
(560,801,l),
(534,723,l)
);
},
{
closed = 1;
nodes = (
(208,790,l),
(192,808,l),
(55,814,l),
(22,734,l),
(156,728,l)
);
}
);
width = 740;
}
);
unicode = 86;
},
{
glyphname = W;
lastChange = "2022-10-16 18:37:55 +0000";
layers = (
{
backgroundImage = {
imagePath = "latin-capital/W.png";
locked = 1;
pos = (-16,-179);
scale = (3.907,3.907);
};
layerId = m01;
shapes = (
{
closed = 1;
nodes = (
(276,-8,l),
(487,493,l),
(466,493,l),
(552,-12,l),
(562,-12,l),
(863,754,l),
(829,754,l),
(585,114,l),
(511,562,l),
(493,580,l),
(276,74,l),
(300,74,l),
(281,179,o),
(261,284,o),
(236,388,cs),
(205,516,o),
(166,641,o),
(129,768,c),
(63,768,l),
(198,317,l),
(262,-8,l)
);
},
{
closed = 1;
nodes = (
(104,744,l),
(194,728,l),
(222,756,l),
(240,792,l),
(228,806,l),
(115,816,l),
(52,789,l),
(24,708,l)
);
},
{
closed = 1;
nodes = (
(794,729,l),
(890,729,l),
(926,787,l),
(908,805,l),
(832,805,l),
(782,801,l),
(752,719,l)
);
}
);
width = 950;
}
);
unicode = 87;
},
{
glyphname = X;
lastChange = "2022-10-16 18:55:50 +0000";
layers = (
{
backgroundImage = {
imagePath = "latin-capital/X.png";
locked = 1;
pos = (-21,-176);
scale = (3.8993,3.8993);
};
layerId = m01;
shapes = (
{
closed = 1;
nodes = (
(172,-2,l),
(196,78,l),
(180,86,l),
(92,76,l),
(56,82,l),
(26,-2,l)
);
},
{
closed = 1;
nodes = (
(431,714,l),
(459,726,o),
(488,737,o),
(517,737,cs),
(544,737,o),
(569,730,o),
(595,717,c),
(625,791,l),
(617,809,l),
(521,809,l),
(457,797,l),
(425,722,l)
);
},
{
closed = 1;
nodes = (
(129,52,l),
(563,785,l),
(519,785,l),
(89,52,l)
);
},
{
closed = 1;
nodes = (
(573,64,l),
(568,80,l),
(526,80,o),
(513,101,o),
(494,141,cs),
(418,300,ls),
(371,399,o),
(307,491,o),
(258,587,cs),
(232,637,o),
(215,696,o),
(179,741,cs),
(156,770,o),
(126,803,o),
(89,803,cs),
(78,803,o),
(67,801,o),
(57,796,c),
(25,723,l),
(31,710,l),
(43,720,o),
(55,727,o),
(68,727,cs),
(99,727,o),
(133,674,o),
(152,638,cs),
(438,99,l),
(483,14,o),
(507,-6,o),
(540,-6,c)
);
}
);
width = 650;
}
);
unicode = 88;
},
{
glyphname = Y;
lastChange = "2022-10-16 19:10:11 +0000";
layers = (
{
backgroundImage = {
imagePath = "latin-capital/Y.png";
locked = 1;
pos = (-19,-180);
scale = (3.9191,3.9191);
};
layerId = m01;
shapes = (
{
closed = 1;
nodes = (
(325,17,l),
(358,91,l),
(343,108,l),
(265,89,l),
(167,91,l),
(140,17,l),
(162,-10,l)
);
},
{
closed = 1;
nodes = (
(770,721,l),
(810,793,l),
(792,810,l),
(647,807,l),
(616,728,l)
);
},
{
closed = 1;
nodes = (
(164,723,l),
(208,787,l),
(197,801,l),
(49,804,l),
(20,727,l)
);
},
{
closed = 1;
nodes = (
(267,67,l),
(727,762,l),
(683,762,l),
(223,67,l)
);
},
{
closed = 1;
nodes = (
(468,396,l),
(167,768,l),
(59,768,l),
(419,322,l)
);
}
);
width = 830;
}
);
unicode = 89;
},
{
glyphname = Z;
lastChange = "2022-10-16 19:27:09 +0000";
layers = (
{
backgroundImage = {
imagePath = "latin-capital/Z.png";
locked = 1;
pos = (-10,-197);
scale = (3.94,3.94);
};
layerId = m01;
shapes = (
{
closed = 1;
nodes = (
(35,-21,l),
(88,6,o),
(147,12,o),
(205,10,cs),
(541,-4,l),
(588,66,l),
(566,81,l),
(184,94,l),
(50,65,l),
(22,-21,l)
);
},
{
closed = 1;
nodes = (
(94,65,l),
(268,299,o),
(430,536,o),
(583,778,c),
(557,803,l),
(399,552,o),
(230,306,o),
(50,65,c)
);
},
{
closed = 1;
nodes = (
(195,711,l),
(431,722,l),
(528,722,l),
(557,803,l),
(449,803,l),
(209,790,l),
(104,790,l),
(73,711,l)
);
},
{
closed = 1;
nodes = (
(150,373,l),
(175,384,o),
(200,390,o),
(226,390,cs),
(310,390,o),
(369,329,o),
(410,329,cs),
(451,329,l),
(493,388,l),
(477,409,l),
(457,409,ls),
(395,409,o),
(331,472,o),
(249,472,cs),
(223,472,o),
(199,463,o),
(175,453,c),
(141,374,l)
);
}
);
width = 610;
}
);
unicode = 90;
},
